<?xml version="1.0" encoding="utf-8"?>
<!-- Generator: Adobe Illustrator 25.2.1, SVG Export Plug-In . SVG Version: 6.00 Build 0)  -->
<svg version="1.05" id="Layer_1" xmlns="http://www.w3.org/2000/svg" xmlns:xlink="http://www.w3.org/1999/xlink" x="0px" y="0px"
	 viewBox="0 0 330 150" xml:space="preserve">
<style type="text/css">
	.st0{fill:#132455;stroke:#132455;stroke-miterlimit:0;}
	.st1{fill:#CF490F;stroke:#CF490F;stroke-miterlimit:0;}
	.st2{stroke:#CF490F;stroke-miterlimit:0;}
	.st3{fill:#132455;}
	.st4{font-family:'Chalkboard-Bold';}
	.st5{font-size:10px;}
</style>
<path class="st0" d="M121.63,94.09c2.13,0,3.96-0.76,5.47-2.27c1.51-1.51,2.27-3.34,2.27-5.47c0-2.13-0.76-3.95-2.27-5.44
	c-1.52-1.49-3.34-2.24-5.47-2.24c-2.13,0-3.95,0.75-5.44,2.24c-1.49,1.49-2.24,3.31-2.24,5.44v25.02c0,1.28-0.41,2.32-1.22,3.14
	c-0.81,0.81-1.86,1.22-3.14,1.22c-1.28,0-2.31-0.41-3.1-1.22c-0.79-0.81-1.18-1.86-1.18-3.14V86.35c0-4.61,1.57-8.48,4.7-11.62
	c3.14-3.14,7.01-4.7,11.62-4.7s8.49,1.57,11.65,4.7c3.16,3.14,4.74,7.01,4.74,11.62c0,4.61-1.58,8.49-4.74,11.65
	c-3.16,3.16-7.04,4.74-11.65,4.74c-1.28,0-2.31-0.41-3.1-1.22c-0.79-0.81-1.18-1.86-1.18-3.14c0-1.28,0.39-2.31,1.18-3.1
	C119.31,94.49,120.35,94.09,121.63,94.09z"/>
<path class="st0" d="M148.96,61.33v36.99c0,1.28-0.41,2.31-1.22,3.1c-0.81,0.79-1.86,1.18-3.14,1.18c-1.28,0-2.31-0.4-3.1-1.18
	c-0.79-0.79-1.18-1.82-1.18-3.1V61.33c0-1.28,0.39-2.31,1.18-3.1c0.79-0.79,1.82-1.18,3.1-1.18
	C147.5,57.04,148.96,58.47,148.96,61.33z"/>
<path class="st0" d="M159.9,74.45v14.34c0,1.45,0.5,2.68,1.5,3.68c1,1,2.23,1.5,3.68,1.5c1.45,0,2.67-0.5,3.65-1.5
	c0.98-1,1.47-2.23,1.47-3.68V74.32c0-1.28,0.41-2.31,1.22-3.1c0.81-0.79,1.86-1.18,3.14-1.18c1.28,0,2.31,0.4,3.1,1.18
	c0.79,0.79,1.18,1.82,1.18,3.1v14.46c0,3.88-1.32,7.16-3.97,9.82c-2.65,2.67-5.91,4-9.79,4c-3.93,0-7.21-1.32-9.86-3.97
	c-2.65-2.65-3.97-5.93-3.97-9.86V74.45c0-1.28,0.39-2.33,1.18-3.14c0.79-0.81,1.82-1.22,3.1-1.22c1.28,0,2.32,0.41,3.14,1.22
	C159.49,72.12,159.9,73.17,159.9,74.45z"/>
<path class="st0" d="M218.07,83.79c0-1.41-0.5-2.61-1.5-3.62c-1-1-2.21-1.5-3.62-1.5c-1.71,0-3.07,0.66-4.1,1.98v17.66
	c0,1.28-0.41,2.31-1.22,3.1c-0.81,0.79-1.86,1.18-3.14,1.18c-1.28,0-2.31-0.4-3.1-1.18c-0.79-0.79-1.18-1.82-1.18-3.1V83.79
	c0-1.41-0.51-2.61-1.54-3.62c-1.02-1-2.24-1.5-3.65-1.5c-1.45,0-2.68,0.49-3.68,1.47c-1,0.98-1.5,2.2-1.5,3.65v14.53
	c0,1.28-0.4,2.31-1.18,3.1c-0.79,0.79-1.82,1.18-3.1,1.18c-1.28,0-2.33-0.4-3.14-1.18c-0.81-0.79-1.22-1.82-1.22-3.1V83.79
	c0-3.88,1.33-7.15,4-9.79c2.67-2.64,5.94-3.97,9.82-3.97c3.37,0,6.36,1.09,8.96,3.26c2.56-2.18,5.55-3.26,8.96-3.26
	c3.88,0,7.15,1.32,9.79,3.97c2.65,2.65,3.97,5.91,3.97,9.79v19.07c0,1.45,0.5,2.68,1.5,3.68c1,1,2.23,1.5,3.68,1.5h0.26
	c1.28,0,2.33,0.4,3.14,1.22c0.81,0.81,1.22,1.86,1.22,3.14c0,1.28-0.41,2.31-1.22,3.1c-0.81,0.79-1.86,1.18-3.14,1.18h-0.26
	c-3.88,0-7.16-1.33-9.82-4c-2.67-2.67-4-5.94-4-9.82V83.79z"/>
<path class="st1" d="M245.4,69.9c4.61,0,8.49,1.58,11.65,4.74c3.16,3.16,4.74,7.04,4.74,11.65c0,4.57-1.59,8.43-4.77,11.58
	c-3.18,3.16-7.05,4.74-11.62,4.74c-4.57,0-8.43-1.58-11.58-4.74c-3.16-3.16-4.74-7.02-4.74-11.58V61.2c0-1.24,0.4-2.26,1.22-3.07
	c0.81-0.81,1.83-1.22,3.07-1.22c1.28,0,2.32,0.4,3.14,1.18c0.81,0.79,1.22,1.82,1.22,3.1v25.09c0,2.13,0.75,3.95,2.24,5.44
	c1.49,1.49,3.31,2.24,5.44,2.24c2.13,0,3.96-0.75,5.47-2.24c1.51-1.49,2.27-3.31,2.27-5.44c0-2.13-0.76-3.96-2.27-5.47
	c-1.52-1.51-3.34-2.27-5.47-2.27c-1.28,0-2.31-0.39-3.1-1.18c-0.79-0.79-1.18-1.82-1.18-3.1c0-1.28,0.39-2.33,1.18-3.14
	C243.09,70.31,244.12,69.9,245.4,69.9z"/>
<line class="st2" x1="233.37" y1="56.91" x2="233.37" y2="12.88"/>
<text transform="matrix(1 0 0 1 140.3154 115.7255)" class="st3 st4 st5">CAFE &amp; EATERY</text>
</svg>
